<svg width="86" height="80" viewBox="0 0 86 80" fill="none" xmlns="http://www.w3.org/2000/svg">
<path fill-rule="evenodd" clip-rule="evenodd" d="M82 4H59V18H82V4ZM59 0C56.7909 0 55 1.79086 55 4V18C55 20.2091 56.7909 22 59 22H82C84.2091 22 86 20.2091 86 18V4C86 1.79086 84.2091 0 82 0H59Z" fill="#FCA326"/>
<path fill-rule="evenodd" clip-rule="evenodd" d="M27 4H4V18H27V4ZM4 0C1.79086 0 0 1.79086 0 4V18C0 20.2091 1.79086 22 4 22H27C29.2091 22 31 20.2091 31 18V4C31 1.79086 29.2091 0 27 0H4Z" fill="#FCA326"/>
<path fill-rule="evenodd" clip-rule="evenodd" d="M82 33H59V47H82V33ZM59 29C56.7909 29 55 30.7909 55 33V47C55 49.2091 56.7909 51 59 51H82C84.2091 51 86 49.2091 86 47V33C86 30.7909 84.2091 29 82 29H59Z" fill="#E24329"/>
<path fill-rule="evenodd" clip-rule="evenodd" d="M27 33H4V47H27V33ZM4 29C1.79086 29 0 30.7909 0 33V47C0 49.2091 1.79086 51 4 51H27C29.2091 51 31 49.2091 31 47V33C31 30.7909 29.2091 29 27 29H4Z" fill="#E24329"/>
<path fill-rule="evenodd" clip-rule="evenodd" d="M82 62H59V76H82V62ZM59 58C56.7909 58 55 59.7909 55 62V76C55 78.2091 56.7909 80 59 80H82C84.2091 80 86 78.2091 86 76V62C86 59.7909 84.2091 58 82 58H59Z" fill="#FCA326"/>
<path fill-rule="evenodd" clip-rule="evenodd" d="M27 62H4V76H27V62ZM4 58C1.79086 58 0 59.7909 0 62V76C0 78.2091 1.79086 80 4 80H27C29.2091 80 31 78.2091 31 76V62C31 59.7909 29.2091 58 27 58H4Z" fill="#FCA326"/>
<path fill-rule="evenodd" clip-rule="evenodd" d="M43 52C49.6274 52 55 46.6274 55 40C55 33.3726 49.6274 28 43 28C36.3726 28 31 33.3726 31 40C31 46.6274 36.3726 52 43 52ZM43 56C51.8366 56 59 48.8366 59 40C59 31.1634 51.8366 24 43 24C34.1634 24 27 31.1634 27 40C27 48.8366 34.1634 56 43 56Z" fill="#E24329"/>
<path d="M43 16C41.8954 16 41 16.8954 41 18V26C41 27.1046 41.8954 28 43 28C44.1046 28 45 27.1046 45 26V18C45 16.8954 44.1046 16 43 16Z" fill="#FC6D26"/>
<path d="M43 52C41.8954 52 41 52.8954 41 54V62C41 63.1046 41.8954 64 43 64C44.1046 64 45 63.1046 45 62V54C45 52.8954 44.1046 52 43 52Z" fill="#FC6D26"/>
<path d="M55 19.2154C54.0434 18.6631 52.8202 18.9909 52.2679 19.9474L48.2679 26.8756C47.7157 27.8322 48.0434 29.0554 49 29.6077C49.9566 30.16 51.1798 29.8322 51.732 28.8756L55.732 21.9474C56.2843 20.9909 55.9566 19.7677 55 19.2154Z" fill="#FC6D26"/>
<path d="M37 50.3923C36.0434 49.84 34.8202 50.1678 34.2679 51.1244L30.2679 58.0526C29.7157 59.0091 30.0434 60.2323 31 60.7846C31.9566 61.3369 33.1798 61.0091 33.732 60.0526L37.732 53.1244C38.2843 52.1678 37.9566 50.9446 37 50.3923Z" fill="#FC6D26"/>
<path d="M67 40C67 38.8954 66.1046 38 65 38L57 38C55.8954 38 55 38.8954 55 40C55 41.1046 55.8954 42 57 42L65 42C66.1046 42 67 41.1046 67 40Z" fill="#FC6D26"/>
<path d="M31 40C31 38.8954 30.1046 38 29 38L21 38C19.8954 38 19 38.8954 19 40C19 41.1046 19.8954 42 21 42L29 42C30.1046 42 31 41.1046 31 40Z" fill="#FC6D26"/>
<path d="M31 19.2154C30.0434 19.7677 29.7157 20.9909 30.2679 21.9474L34.2679 28.8756C34.8202 29.8322 36.0434 30.16 37 29.6077C37.9566 29.0554 38.2843 27.8322 37.732 26.8756L33.732 19.9474C33.1798 18.9909 31.9566 18.6631 31 19.2154Z" fill="#FC6D26"/>
<path d="M49 50.3923C48.0434 50.9446 47.7157 52.1678 48.2679 53.1244L52.2679 60.0526C52.8202 61.0091 54.0434 61.3369 55 60.7846C55.9566 60.2323 56.2843 59.0091 55.732 58.0526L51.732 51.1244C51.1798 50.1678 49.9566 49.84 49 50.3923Z" fill="#FC6D26"/>
</svg>
