<svg width="16" height="16" viewBox="0 0 16 16" fill="none" xmlns="http://www.w3.org/2000/svg">
<g clip-path="url(#clip0_8_97)">
<path fill-rule="evenodd" clip-rule="evenodd" d="M0 0C3.21969 0.00920984 4.96662 0.572867 8 2C11.0334 0.572867 12.7803 0.00920984 16 0V14C12.7672 14.0329 11.0221 14.6115 8 16C4.97789 14.6115 3.23278 14.0329 0 14V0ZM13.0073 6.92088L13.0213 6.95821C13.2244 7.48973 13.2493 8.07288 13.0921 8.61976C12.935 9.16664 12.6043 9.64762 12.15 9.99019L12.144 9.99485L9.97862 11.6155L8.91195 12.4215L8.26395 12.9115C8.18792 12.9689 8.09523 13 7.99995 13C7.90466 13 7.81198 12.9689 7.73595 12.9115L7.08795 12.4215L6.02128 11.6155L3.87128 10.0042L3.85928 9.99485L3.85394 9.99085C3.39957 9.64816 3.06893 9.16703 2.91188 8.62001C2.75484 8.07299 2.77989 7.48974 2.98328 6.95821L2.99794 6.92154L4.41061 3.23424C4.43922 3.16185 4.49012 3.10044 4.55594 3.05891C4.6051 3.02761 4.66088 3.00823 4.71885 3.00231C4.77682 2.99639 4.83537 3.0041 4.88983 3.02483C4.94429 3.04555 4.99316 3.07871 5.03253 3.12167C5.07191 3.16462 5.1007 3.21618 5.11661 3.27224L6.07061 6.19288H9.93395L10.888 3.27224C10.9037 3.2161 10.9325 3.16444 10.9718 3.1214C11.0112 3.07836 11.0601 3.04514 11.1146 3.02441C11.1691 3.00367 11.2277 2.99598 11.2857 3.00198C11.3437 3.00797 11.3995 3.02746 11.4486 3.05891C11.5144 3.10044 11.5653 3.16185 11.594 3.23424L13.0073 6.92088Z" fill="#FC6D26"/>
</g>
<defs>
<clipPath id="clip0_8_97">
<rect width="16" height="16" fill="white"/>
</clipPath>
</defs>
</svg>
