<svg width="390" height="293" viewBox="0 0 390 293" fill="none" xmlns="http://www.w3.org/2000/svg">
<circle cx="251" cy="239" r="59.5" stroke="#41419F"/>
<path d="M210.436 244.852L210.122 245.802L210.436 244.852L208.305 244.149C208.104 242.461 208 240.743 208 239C208 236.896 208.151 234.828 208.443 232.806L210.436 232.148C217.978 229.659 221.545 221.048 217.972 213.955L217.198 212.419C219.619 209.344 222.45 206.609 225.609 204.294L226.955 204.972C234.048 208.545 242.659 204.978 245.148 197.436L245.507 196.347C247.305 196.118 249.139 196 251 196C253.224 196 255.409 196.169 257.541 196.494L257.852 197.436C260.341 204.978 268.952 208.545 276.045 204.972L276.796 204.594C280.056 207.042 282.958 209.944 285.406 213.204L285.028 213.955C281.455 221.048 285.022 229.659 292.564 232.148L293.506 232.459C293.831 234.591 294 236.776 294 239C294 240.861 293.882 242.695 293.653 244.493L292.564 244.852C285.022 247.341 281.455 255.952 285.028 263.045L285.706 264.391C283.391 267.55 280.656 270.381 277.581 272.802L276.045 272.028C268.952 268.455 260.341 272.022 257.852 279.564L257.194 281.557C255.172 281.849 253.104 282 251 282C249.257 282 247.539 281.896 245.851 281.695L245.148 279.564C242.659 272.022 234.048 268.455 226.955 272.028L224.811 273.108C221.841 270.823 219.177 268.159 216.892 265.189L217.972 263.045C221.545 255.952 217.978 247.341 210.436 244.852ZM251 256C260.389 256 268 248.389 268 239C268 229.611 260.389 222 251 222C241.611 222 234 229.611 234 239C234 248.389 241.611 256 251 256Z" fill="#2F2A6B" stroke="#41419F" stroke-width="2"/>
<path d="M330 115V123C330 136.255 319.255 147 306 147H119" stroke="#41419F"/>
<path d="M59 207V215C59 228.255 69.7452 239 83 239H191" stroke="#41419F"/>
<circle cx="330" cy="55" r="59.5" stroke="#41419F"/>
<circle cx="370" cy="93" r="11" fill="#2F2A6B" stroke="#41419F" stroke-width="2"/>
<path fill-rule="evenodd" clip-rule="evenodd" d="M375.707 89.2929C376.098 89.6834 376.098 90.3166 375.707 90.7071L369.707 96.7071C369.317 97.0976 368.683 97.0976 368.293 96.7071L365.293 93.7071C364.902 93.3166 364.902 92.6834 365.293 92.2929C365.683 91.9024 366.317 91.9024 366.707 92.2929L369 94.5858L374.293 89.2929C374.683 88.9024 375.317 88.9024 375.707 89.2929Z" fill="#41419F"/>
<path d="M356 51H380" stroke="#41419F" stroke-linecap="round"/>
<path d="M284 51H300" stroke="#41419F" stroke-linecap="round"/>
<path d="M290 35H314" stroke="#41419F" stroke-linecap="round"/>
<path d="M347 35H371" stroke="#41419F" stroke-linecap="round"/>
<path d="M281 43H289" stroke="#41419F" stroke-linecap="round"/>
<path d="M360 59H368" stroke="#41419F" stroke-linecap="round"/>
<path d="M287 27H303" stroke="#41419F" stroke-linecap="round"/>
<path d="M344 19H352" stroke="#41419F" stroke-linecap="round"/>
<path d="M362 27H370" stroke="#41419F" stroke-linecap="round"/>
<path d="M289 75H297" stroke="#41419F" stroke-linecap="round"/>
<path d="M368 43H376" stroke="#41419F" stroke-linecap="round"/>
<path d="M356 43H364" stroke="#41419F" stroke-linecap="round"/>
<path d="M293 43H301" stroke="#41419F" stroke-linecap="round"/>
<path d="M372 59H380" stroke="#41419F" stroke-linecap="round"/>
<path d="M346 67H370" stroke="#41419F" stroke-linecap="round"/>
<path d="M360 75H368" stroke="#41419F" stroke-linecap="round"/>
<path d="M282 67H298" stroke="#41419F" stroke-linecap="round"/>
<path d="M299 83H315" stroke="#41419F" stroke-linecap="round"/>
<path d="M308 91H316" stroke="#41419F" stroke-linecap="round"/>
<path d="M332 91H352" stroke="#41419F" stroke-linecap="round"/>
<path d="M318 99H342" stroke="#41419F" stroke-linecap="round"/>
<path d="M340 83H356" stroke="#41419F" stroke-linecap="round"/>
<path d="M301 75H317" stroke="#41419F" stroke-linecap="round"/>
<path d="M296 19H312" stroke="#41419F" stroke-linecap="round"/>
<path d="M316 19H340" stroke="#41419F" stroke-linecap="round"/>
<path d="M320 11H344" stroke="#41419F" stroke-linecap="round"/>
<path d="M286 59H310" stroke="#41419F" stroke-linecap="round"/>
<path d="M299 29.9898C309.25 29.7807 319.185 26.3611 327.4 20.2L330 18.25L332.6 20.2C340.815 26.3611 350.75 29.7807 361 29.9898V54.8301C361 68.2769 354.073 80.7752 342.67 87.902L330 95.8208L317.33 87.902C305.927 80.7752 299 68.2769 299 54.8301V29.9898Z" fill="#2F2A6B" stroke="#41419F" stroke-width="2"/>
<path d="M333 55.6185C333 55.2904 333.197 54.8954 333.628 54.4408C334.477 53.5453 335 52.3326 335 51C335 48.2386 332.761 46 330 46C327.239 46 325 48.2386 325 51C325 52.3326 325.523 53.5453 326.372 54.4408C326.803 54.8954 327 55.2904 327 55.6185V59C327 60.6569 328.343 62 330 62C331.657 62 333 60.6569 333 59V55.6185Z" fill="#2F2A6B" stroke="#41419F" stroke-width="2"/>
<circle cx="60" cy="147" r="59.5" stroke="#41419F"/>
<path d="M20 106C51.2419 106 68.7581 106 100 106" stroke="#41419F" stroke-width="2"/>
<circle cx="60" cy="106" r="11" fill="#2F2A6B" stroke="#41419F" stroke-width="2"/>
<circle cx="20" cy="106" r="11" fill="#2F2A6B" stroke="#41419F" stroke-width="2"/>
<path fill-rule="evenodd" clip-rule="evenodd" d="M25.7071 102.293C26.0976 102.683 26.0976 103.317 25.7071 103.707L19.7071 109.707C19.3166 110.098 18.6834 110.098 18.2929 109.707L15.2929 106.707C14.9024 106.317 14.9024 105.683 15.2929 105.293C15.6834 104.902 16.3166 104.902 16.7071 105.293L19 107.586L24.2929 102.293C24.6834 101.902 25.3166 101.902 25.7071 102.293Z" fill="#41419F"/>
<path fill-rule="evenodd" clip-rule="evenodd" d="M65.7071 102.293C66.0976 102.683 66.0976 103.317 65.7071 103.707L59.7071 109.707C59.3166 110.098 58.6834 110.098 58.2929 109.707L55.2929 106.707C54.9024 106.317 54.9024 105.683 55.2929 105.293C55.6834 104.902 56.3166 104.902 56.7071 105.293L59 107.586L64.2929 102.293C64.6834 101.902 65.3166 101.902 65.7071 102.293Z" fill="#41419F"/>
<circle cx="100" cy="106" r="11" fill="#2F2A6B" stroke="#41419F" stroke-width="2"/>
<path fill-rule="evenodd" clip-rule="evenodd" d="M105.707 102.293C106.098 102.683 106.098 103.317 105.707 103.707L99.7071 109.707C99.3166 110.098 98.6834 110.098 98.2929 109.707L95.2929 106.707C94.9024 106.317 94.9024 105.683 95.2929 105.293C95.6834 104.902 96.3166 104.902 96.7071 105.293L99 107.586L104.293 102.293C104.683 101.902 105.317 101.902 105.707 102.293Z" fill="#41419F"/>
<path d="M29 197V141C29 138.791 30.7909 137 33 137H87C89.2091 137 91 138.791 91 141V197" stroke="#41419F" stroke-width="2" stroke-linecap="round"/>
<path d="M35 200V143H85V200" stroke="#41419F" stroke-linecap="round"/>
<path d="M65 134V135H66H75V144H45V135H54H55V134C55 131.239 57.2386 129 60 129C62.7614 129 65 131.239 65 134Z" fill="#2F2A6B" stroke="#41419F" stroke-width="2"/>
<circle cx="2" cy="2" r="2" transform="matrix(-1 0 0 1 62 132)" fill="#41419F"/>
<path d="M40 172.5V191H79" stroke="#41419F" stroke-width="2" stroke-linecap="round"/>
<path d="M44.5 187C45.5 184.833 49.4 179 51 179C53 179 56 183 58 181.5C60 180 62.1328 175.447 64.5 174.5C67 173.5 72.5 177 75.5 172" stroke="#41419F" stroke-width="2" stroke-linecap="round"/>
<circle cx="40" cy="152" r="1" fill="#41419F"/>
<circle cx="40" cy="157" r="1" fill="#41419F"/>
<circle cx="40" cy="162" r="1" fill="#41419F"/>
<rect x="44" y="151" width="30" height="2" rx="1" fill="#41419F"/>
<rect x="44" y="156" width="36" height="2" rx="1" fill="#41419F"/>
<rect x="44" y="161" width="24" height="2" rx="1" fill="#41419F"/>
<rect x="39" y="195" width="24" height="2" rx="1" fill="#41419F"/>
</svg>
